<?xml version="1.0" standalone="no"?><!DOCTYPE svg PUBLIC "-//W3C//DTD SVG 1.1//EN" "http://www.w3.org/Graphics/SVG/1.1/DTD/svg11.dtd"><svg t="1774582706637" class="icon" viewBox="0 0 1024 1024" version="1.1" xmlns="http://www.w3.org/2000/svg" p-id="1713" xmlns:xlink="http://www.w3.org/1999/xlink" width="200" height="200"><path d="M1010.138027 745.002667a63483.733333 63483.733333 0 0 1-124.16-158.762667 385.536 385.536 0 0 0 47.402666-184.917333c0-220.842667-186.752-400.512-416.298666-400.512S100.740693 180.48 100.740693 401.322667c0 64 16.085333 124.330667 43.946667 178.048a67152.64 67152.64 0 0 1-130.304 161.152c-21.461333 26.197333-13.738667 48.896-9.429333 57.514666 11.264 22.314667 39.210667 35.157333 76.757333 35.157334l118.314667-0.170667c8.533333 2.474667 25.770667 23.04 28.16 31.786667 3.072 13.653333 14.634667 45.824 29.354666 86.357333 5.333333 14.677333 9.856 26.922667 11.477334 32a51.626667 51.626667 0 0 0 42.837333 34.944 62.464 62.464 0 0 0 59.221333-26.282667c9.216-13.312 92.288-139.264 126.378667-191.018666 6.528 0.341333 12.928 1.024 19.541333 1.024 6.272 0 12.416-0.682667 18.688-0.938667 31.36 49.28 116.053333 182.058667 125.269334 195.797333a61.568 61.568 0 0 0 58.624 26.837334 51.2 51.2 0 0 0 42.752-35.370667c1.621333-5.162667 5.973333-17.578667 11.178666-32.426667 14.293333-40.704 25.514667-72.917333 28.458667-86.570666 2.133333-8.448 17.792-28.117333 26.282667-31.786667h115.242666c36.437333 0 63.872-12.629333 75.221334-34.688 4.48-8.448 12.416-31.189333-8.576-57.685333z m-66.56 30.848h-128.981334l-12.544 5.461333c-28.8 12.458667-55.893333 48.64-62.165333 73.258667-2.773333 12.629333-16.768 52.437333-26.922667 81.493333l-5.589333 15.914667c-23.296-36.096-90.026667-140.8-117.077333-183.210667l-19.754667-31.018667s-51.029333 2.56-53.461333 2.56c-2.901333 0-5.76-0.256-8.618667-0.426666l-44.928-2.432-20.053333 30.464c-29.781333 45.184-97.024 147.114667-119.168 180.266666a2957.610667 2957.610667 0 0 0-5.418667-14.848c-10.752-29.696-25.685333-70.784-28.16-81.664-7.424-27.264-37.930667-67.712-72.277333-77.696l-9.088-2.645333-127.786667 0.213333c-4.224 0-7.722667-0.256-10.581333-0.682666l148.864-184.448-17.962667-34.645334a324.096 324.096 0 0 1-37.248-150.570666c0-186.88 158.08-338.901333 352.341333-338.901334s352.298667 152.021333 352.298667 338.901334a327.210667 327.210667 0 0 1-40.064 156.288l-18.816 34.474666s103.509333 132.565333 143.189333 183.210667c-2.602667 0.384-5.973333 0.682667-10.026666 0.682667z" p-id="1714"></path><path d="M517.082027 802.645333c-229.333333 0-415.957333-180.053333-415.957334-401.322666C101.124693 180.053333 287.706027 0 517.082027 0c229.333333 0 415.914667 180.053333 415.914666 401.322667 0 221.269333-186.581333 401.322667-415.914666 401.322666z m0-738.688c-194.048 0-351.957333 151.338667-351.957334 337.365334 0 186.026667 157.866667 337.365333 351.957334 337.365333 194.048 0 351.914667-151.338667 351.914666-337.365333 0-186.026667-157.866667-337.365333-351.914666-337.365334z" p-id="1715"></path><path d="M517.082027 178.816c-127.530667 0-231.296 99.84-231.296 222.506667 0 122.709333 103.765333 222.506667 231.296 222.506666 127.530667 0 231.253333-99.797333 231.253333-222.506666 0-122.666667-103.765333-222.506667-231.253333-222.506667z m0 383.445333c-92.245333 0-167.296-72.192-167.296-160.938666s75.050667-160.938667 167.296-160.938667 167.253333 72.192 167.253333 160.938667-75.050667 160.938667-167.253333 160.938666z" p-id="1716"></path></svg>